<?xml version="1.0" encoding="UTF-8"?><svg id="b" xmlns="http://www.w3.org/2000/svg" width="112" height="112" xmlns:xlink="http://www.w3.org/1999/xlink" viewBox="0 0 112 112"><defs><linearGradient id="d" x1="-478.76" y1="592.76" x2="-477.76" y2="591.76" gradientTransform="translate(53621 66389) scale(112 -112)" gradientUnits="userSpaceOnUse"><stop offset="0" stop-color="#4285f4"/><stop offset="1" stop-color="#1a73e8"/></linearGradient><linearGradient id="e" x1="-477.6" y1="573.25" x2="-476.6" y2="572.25" gradientTransform="translate(42041 11481) scale(88 -20)" gradientUnits="userSpaceOnUse"><stop offset="0" stop-color="#fff"/><stop offset="1" stop-color="#f8f9fa"/></linearGradient><linearGradient id="f" x1="-456.61" y1="557.42" x2="-455.61" y2="556.42" gradientTransform="translate(8297 6709) scale(18 -12)" gradientUnits="userSpaceOnUse"><stop offset="0" stop-color="#34a853"/><stop offset="1" stop-color="#137333"/></linearGradient><linearGradient id="g" x1="-477.6" y1="573.25" x2="-476.6" y2="572.25" gradientTransform="translate(42041 11509) scale(88 -20)" xlink:href="#e"/><linearGradient id="h" x1="-477.6" y1="573.25" x2="-476.6" y2="572.25" gradientTransform="translate(42041 11537) scale(88 -20)" xlink:href="#e"/></defs><g id="c"><circle cx="56" cy="56" r="56" fill="url(#d)"/><rect x="12" y="16" width="88" height="20" rx="4" ry="4" fill="url(#e)" stroke="#e8eaed"/><path d="M84,20h6c3.31,0,6,2.69,6,6h0c0,3.31-2.69,6-6,6h-6c-3.31,0-6-2.69-6-6h0c0-3.31,2.69-6,6-6Z" fill="url(#f)"/><circle cx="90" cy="26" r="4" fill="#fff"/><circle cx="18" cy="26" r="3" fill="#4285f4" isolation="isolate" opacity=".8"/><circle cx="27" cy="26" r="3" fill="#4285f4" isolation="isolate" opacity=".8"/><circle cx="36" cy="26" r="3" fill="#4285f4" isolation="isolate" opacity=".8"/><circle cx="45" cy="26" r="3" fill="#4285f4" isolation="isolate" opacity=".6"/><rect x="12" y="44" width="88" height="20" rx="4" ry="4" fill="url(#g)" stroke="#e8eaed"/><path d="M84,48h6c3.31,0,6,2.69,6,6h0c0,3.31-2.69,6-6,6h-6c-3.31,0-6-2.69-6-6h0c0-3.31,2.69-6,6-6Z" fill="#dadce0"/><circle cx="83" cy="54" r="4" fill="#fff"/><circle cx="27" cy="54" r="3" fill="#9aa0a6" isolation="isolate" opacity=".6"/><circle cx="36" cy="54" r="3" fill="#9aa0a6" isolation="isolate" opacity=".6"/><rect x="12" y="72" width="88" height="20" rx="4" ry="4" fill="url(#h)" stroke="#e8eaed"/><path d="M84,76h6c3.31,0,6,2.69,6,6h0c0,3.31-2.69,6-6,6h-6c-3.31,0-6-2.69-6-6h0c0-3.31,2.69-6,6-6Z" fill="#fbbc04"/><circle cx="86" cy="82" r="4" fill="#fff"/><circle cx="18" cy="82" r="3" fill="#4285f4" isolation="isolate" opacity=".8"/><circle cx="27" cy="82" r="3" fill="#9aa0a6" isolation="isolate" opacity=".6"/><circle cx="36" cy="82" r="3" fill="#4285f4" isolation="isolate" opacity=".8"/><circle cx="45" cy="82" r="3" fill="#9aa0a6" isolation="isolate" opacity=".6"/><circle cx="54" cy="82" r="3" fill="#4285f4" isolation="isolate" opacity=".8"/></g></svg>